<svg width="11" height="11" viewBox="0 0 11 11" fill="none" xmlns="http://www.w3.org/2000/svg">
<path d="M2.375 3.15625C2.375 3.87442 2.51645 4.58555 2.79128 5.24905C3.06612 5.91255 3.46894 6.51542 3.97676 7.02324C4.48458 7.53106 5.08745 7.93389 5.75095 8.20872C6.41445 8.48355 7.12559 8.625 7.84376 8.625" stroke="#FAFAF9" style="stroke:#FAFAF9;stroke:color(display-p3 0.9804 0.9804 0.9765);stroke-opacity:1;" stroke-width="0.78125" stroke-linejoin="round"/>
<path d="M2.375 3.15625C2.375 2.50904 2.89967 1.98438 3.54688 1.98438V1.98438C4.19408 1.98438 4.71875 2.50904 4.71875 3.15625V3.15625C4.71875 3.80346 4.19408 4.32812 3.54688 4.32812V4.32812C2.89967 4.32812 2.375 3.80346 2.375 3.15625V3.15625Z" stroke="#FAFAF9" style="stroke:#FAFAF9;stroke:color(display-p3 0.9804 0.9804 0.9765);stroke-opacity:1;" stroke-width="0.78125" stroke-linejoin="round"/>
<path d="M6.67188 7.45312C6.67188 6.80592 7.19654 6.28125 7.84375 6.28125V6.28125C8.49096 6.28125 9.01562 6.80592 9.01562 7.45312V7.45312C9.01562 8.10033 8.49096 8.625 7.84375 8.625V8.625C7.19654 8.625 6.67188 8.10033 6.67188 7.45312V7.45312Z" stroke="#FAFAF9" style="stroke:#FAFAF9;stroke:color(display-p3 0.9804 0.9804 0.9765);stroke-opacity:1;" stroke-width="0.78125" stroke-linejoin="round"/>
</svg>
