<svg width="65" height="65" viewBox="0 0 65 65" fill="none" xmlns="http://www.w3.org/2000/svg">
<path fill-rule="evenodd" clip-rule="evenodd" d="M24.3832 53.4897L30.6139 43.1039V22.6124L24.3832 12.1875H10.3063L4.0625 22.6124L4.0625 43.1039L10.3063 53.4897H24.3832ZM12.2439 17L8.41662 25.1079L8.48774 28.4134L8.42415 39.3232L8.41662 40.615L12.2439 49H22.4325L26.2598 40.615V25.1079L22.4325 17H12.2439Z" fill="#0B0B0B" style="fill:#0B0B0B;fill:color(display-p3 0.0445 0.0445 0.0445);fill-opacity:1;"/>
<path fill-rule="evenodd" clip-rule="evenodd" d="M8.48774 28.4134L12.913 26.9383L17.3382 29.8885V38.7389L12.913 40.615L8.42415 39.3232L8.48774 28.4134ZM12.913 29.8885L9.96282 31.3635L12.913 32.8386L14.3881 31.3635L12.913 29.8885Z" fill="#0B0B0B" style="fill:#0B0B0B;fill:color(display-p3 0.0445 0.0445 0.0445);fill-opacity:1;"/>
<path fill-rule="evenodd" clip-rule="evenodd" d="M53.8851 53.4897L60.1159 43.1039V22.6124L53.8851 12.1875H39.8083L33.5645 22.6124V43.1039L39.8083 53.4897H53.8851ZM41.7458 17L37.9186 25.1079L37.9897 28.4134L37.9261 39.3232L37.9186 40.615L41.7458 49H51.9345L55.7618 40.615V25.1079L51.9345 17H41.7458Z" fill="#0B0B0B" style="fill:#0B0B0B;fill:color(display-p3 0.0445 0.0445 0.0445);fill-opacity:1;"/>
<path fill-rule="evenodd" clip-rule="evenodd" d="M37.9897 28.4134L42.4149 26.9383L46.8402 29.8885V38.7389L42.4149 40.615L37.9261 39.3232L37.9897 28.4134ZM42.4149 29.8885L39.4648 31.3635L42.4149 32.8386L43.89 31.3635L42.4149 29.8885Z" fill="#0B0B0B" style="fill:#0B0B0B;fill:color(display-p3 0.0445 0.0445 0.0445);fill-opacity:1;"/>
</svg>
