<svg width="11" height="11" viewBox="0 0 11 11" fill="none" xmlns="http://www.w3.org/2000/svg">
<path d="M7.46584 9.40625V7.76417C7.46584 7.25607 7.73816 6.79759 8.0499 6.39635C8.1703 6.24139 8.27414 6.0733 8.35921 5.89472C8.56114 5.47084 8.65051 5.0021 8.61873 4.53366C8.58695 4.06522 8.43508 3.61285 8.17775 3.22013C7.92043 2.82741 7.56631 2.50757 7.14951 2.2914C6.73271 2.07524 6.26728 1.97004 5.79803 1.98594C5.32878 2.00184 4.87153 2.1383 4.47032 2.38218C4.06911 2.62606 3.73746 2.96915 3.5073 3.37839C3.27715 3.78762 3.15625 4.24923 3.15625 4.71875L2.375 6.28125H3.15625V7.45313H4.32813V9.40625" stroke="#FAFAF9" style="stroke:#FAFAF9;stroke:color(display-p3 0.9804 0.9804 0.9765);stroke-opacity:1;" stroke-width="0.78125" stroke-linejoin="round"/>
<path d="M7.25781 5.30469L6.00551 6.55699C5.94206 6.62044 5.83919 6.62044 5.77574 6.55699L4.52344 5.30469C4.19983 4.98108 4.19983 4.45642 4.52344 4.13281C4.84704 3.80921 5.37171 3.80921 5.69531 4.13281L5.89063 4.32813L6.08594 4.13281C6.40954 3.80921 6.93421 3.80921 7.25781 4.13281C7.58142 4.45642 7.58142 4.98108 7.25781 5.30469Z" stroke="#FAFAF9" style="stroke:#FAFAF9;stroke:color(display-p3 0.9804 0.9804 0.9765);stroke-opacity:1;" stroke-width="0.78125" stroke-linejoin="round"/>
</svg>
