<svg width="38" height="38" viewBox="0 0 38 38" fill="none" xmlns="http://www.w3.org/2000/svg">
<path d="M8.33334 15.8335H12.8085C13.6694 15.8335 14.4336 15.2826 14.7059 14.466L16.9608 7.70104C17.2331 6.88436 17.9973 6.3335 18.8582 6.3335H20.1667C21.2712 6.3335 22.1667 7.22893 22.1667 8.3335V13.8335C22.1667 14.9381 23.0621 15.8335 24.1667 15.8335H26.7875C29.3116 15.8335 31.2048 18.1428 30.7098 20.618L29.1431 28.4513C28.7692 30.321 27.1275 31.6668 25.2208 31.6668H21.4222C19.8428 31.6668 18.2988 31.1993 16.9846 30.3232L15.0058 29.004C14.513 28.6755 13.934 28.5002 13.3417 28.5002H8.33334C7.22877 28.5002 6.33334 27.6047 6.33334 26.5002V17.8335C6.33334 16.7289 7.22877 15.8335 8.33334 15.8335Z" stroke="#232222" style="stroke:#232222;stroke:color(display-p3 0.1373 0.1333 0.1333);stroke-opacity:1;" stroke-width="2.5" stroke-linejoin="round"/>
<path d="M12.6667 15.8335V27.7551V28.5002" stroke="#232222" style="stroke:#232222;stroke:color(display-p3 0.1373 0.1333 0.1333);stroke-opacity:1;" stroke-width="2" stroke-linejoin="round"/>
</svg>
