<svg width="75" height="69" viewBox="0 0 75 69" fill="none" xmlns="http://www.w3.org/2000/svg">
<path d="M41.0495 22.129H50.0728L50.9376 29.3788L62.6985 22.129H71.237V4.79119H41.0495V22.129ZM47.0916 37.365L45.8445 26.918H36.2842V0.00219727H76.0001V26.918H64.0412L47.0893 37.365H47.0916Z" fill="black" style="fill:black;fill-opacity:1;"/>
<path d="M10.3977 4.79128C2.62834 17.5368 2.9037 33.6213 11.1987 46.1243L11.2829 46.2524C19.5847 58.7623 34.2563 65.2002 48.9507 62.8881L54.1439 50.3301L36.4956 42.9591C36.4956 42.9591 33.4211 50.3095 33.098 51.1717C31.4663 51.1031 23.9177 49.1683 18.7518 41.1135C13.6337 33.1318 14.6396 25.4932 15.0014 24.0021C18.0577 24.0021 23.9154 24.0067 23.9154 24.0067L23.9268 4.80042L10.3931 4.79356L10.3977 4.79128ZM43.0179 68.139C28.8378 68.139 15.3974 61.0813 7.32543 48.9145L7.23213 48.775C-2.36232 34.3188 -2.41466 15.5951 7.10013 1.07718L7.80561 0L28.6967 0.011434L28.6808 28.7934L19.3617 28.7888C19.4983 30.9043 20.1673 34.472 22.7594 38.5155C25.356 42.5634 28.4145 44.5143 30.3239 45.4039L33.9263 36.695L60.3748 47.7412L52.3551 67.1282L51.0944 67.3706C48.3977 67.8875 45.6941 68.1367 43.0179 68.1367" fill="black" style="fill:black;fill-opacity:1;"/>
</svg>
