<svg width="62" height="73" viewBox="0 0 62 73" fill="none" xmlns="http://www.w3.org/2000/svg">
<path d="M51.6814 62.4462L56.9671 50.1151C57.2598 49.4293 57.191 48.6421 56.7851 48.0182C56.3768 47.3944 55.6857 47.0181 54.9453 47.0181H6.45159C5.70879 47.0181 5.01764 47.3919 4.6118 48.0182C4.2035 48.6421 4.13709 49.4293 4.42979 50.1151L9.7155 62.4462C6.05805 64.3822 2.86793 66.89 0.705933 69.5488L4.17645 72.2844C6.27696 69.737 9.7032 67.244 13.4762 65.5333C14.5732 65.0357 15.0725 63.7434 14.5954 62.6319L9.8065 51.4519H51.5978L46.8065 62.6319C46.3318 63.7434 46.8286 65.0357 47.9256 65.5333C51.9348 67.3504 55.5529 69.6231 57.6017 72.3339L61.1091 70.0761C58.9521 67.2217 55.5848 64.5109 51.6864 62.4462H51.6814Z" fill="black"/>
<path d="M57.4812 72.9999L57.2057 72.636C55.4127 70.2644 52.2201 68.0289 47.719 65.9889C46.3834 65.3849 45.7685 63.7906 46.349 62.4364L50.8402 51.9521H10.5542L15.0455 62.4364C15.6259 63.7906 15.011 65.3824 13.6755 65.9889C10.0082 67.6526 6.59915 70.1257 4.55521 72.6038L4.24775 72.9776L0 69.6281L0.31975 69.2345C2.4301 66.6425 5.52675 64.1644 9.07844 62.2235L3.97228 50.3132C3.61071 49.4715 3.69434 48.511 4.1961 47.7435C4.6954 46.9761 5.53905 46.5181 6.45157 46.5181H54.9453C55.8554 46.5181 56.699 46.9761 57.2008 47.7435C57.7001 48.511 57.7837 49.4715 57.4246 50.3132L52.3209 62.2235C56.1382 64.308 59.3874 66.9767 61.5027 69.7767L61.8273 70.2074L57.4837 73.0024L57.4812 72.9999ZM9.04892 50.9544H52.3455L47.2566 62.83C46.8901 63.6866 47.2787 64.6967 48.1248 65.0804C52.5546 67.0881 55.7742 69.3038 57.7099 71.6705L60.3811 69.9524C58.3273 67.3951 55.2897 64.964 51.7454 63.0429L50.4073 64.1644L56.5121 49.9171C56.7408 49.3849 56.6867 48.7758 56.3694 48.2906C56.0522 47.8054 55.5184 47.5157 54.9429 47.5157H6.45157C5.87356 47.5157 5.33982 47.8054 5.02499 48.2906C4.7077 48.7758 4.65605 49.3849 4.88233 49.9171L10.3501 62.6716L9.94422 62.887C6.52044 64.6991 3.51233 67.0262 1.41182 69.4746L4.1051 71.5987C6.28431 69.1033 9.59496 66.744 13.2696 65.0779C14.1157 64.6942 14.5043 63.6866 14.1379 62.83L9.04892 50.9544Z" fill="black"/>
<path d="M54.9424 47.0181H56.3714L57.6307 48.8624L55.968 52.4496L54.9424 47.0205V47.0181Z" fill="black"/>
<path d="M55.7664 54.0564L54.3447 46.5181H56.6322L58.1989 48.813L55.7688 54.0564H55.7664ZM55.5401 47.5157L56.1673 50.8381L57.0626 48.9095L56.1107 47.5157H55.5401Z" fill="black"/>
<path d="M6.51793 47.0181H5.09135L3.83203 48.8624L5.49473 52.4496L6.51793 47.0205V47.0181Z" fill="black"/>
<path d="M5.69428 54.0588L3.26172 48.8154L4.82849 46.5205H7.11348L5.69182 54.0588H5.69428ZM4.40052 48.9095L5.29582 50.838L5.92056 47.5157H5.35239L4.40052 48.9095Z" fill="black"/>
<path d="M47.0279 62.105L46.0686 64.4717L47.9207 65.5362L47.0279 62.105Z" fill="black"/>
<path d="M48.6979 66.5535L45.4463 64.6869L47.1311 60.5303L48.6979 66.5535ZM46.6909 64.2536L47.1434 64.5136L46.9245 63.6768L46.6909 64.2536Z" fill="black"/>
<path d="M14.3641 62.105L15.3234 64.4717L13.4738 65.5362L14.3641 62.105Z" fill="black"/>
<path d="M12.6965 66.5535L14.2608 60.5303L15.9457 64.6869L12.6965 66.5535ZM14.4675 63.6768L14.251 64.5136L14.7011 64.2536L14.4675 63.6768Z" fill="black"/>
<path d="M59.3527 17.0653H49.7824L43.744 2.87996C43.3333 1.91694 42.3051 1.3723 41.2869 1.57778L30.6982 3.7093L20.1096 1.57778C19.0888 1.3723 18.0632 1.91694 17.6524 2.87996L11.6141 17.0653H2.0437V21.5017H9.76197C9.36105 22.638 9.03393 23.8263 8.86913 25.0814C8.73631 26.1039 8.66498 27.1338 8.65514 28.1413L8.63793 30.3595L13.0456 30.3942L13.0628 28.176C13.0702 27.3491 13.1292 26.5025 13.2399 25.6608C13.4243 24.2645 13.9236 22.8608 14.4967 21.5017H46.8972C47.4728 22.8583 47.9721 24.2645 48.1541 25.6583C48.2648 26.5025 48.3238 27.3516 48.3312 28.176L48.3484 30.3942L52.756 30.3595L52.7388 28.1413C52.7314 27.1338 52.6601 26.1039 52.5248 25.079C52.36 23.8263 52.0329 22.6405 51.632 21.5042H59.3478M16.4054 17.0653L20.995 6.28148L30.2629 8.14811C30.5482 8.20505 30.8409 8.20505 31.1286 8.14811L40.3965 6.28148L44.9886 17.0653H16.4078H16.4054Z" fill="black"/>
<path d="M47.8565 30.8943L47.8368 28.176C47.8294 27.3566 47.7704 26.5297 47.6646 25.7202C47.49 24.3883 47.0079 23.0589 46.5701 21.9968H14.8263C14.3885 23.0613 13.9064 24.3932 13.7318 25.7227C13.626 26.5322 13.567 27.3566 13.5596 28.176L13.54 30.8918L8.1411 30.8497L8.16078 28.1339C8.16816 27.1041 8.24195 26.0544 8.37722 25.0121C8.50266 24.0516 8.73141 23.0589 9.07084 21.9968H1.54688V16.5628H11.282L17.1925 2.67945C17.6942 1.50352 18.9585 0.832623 20.2031 1.08514L30.6958 3.19685L41.186 1.08514C42.4306 0.835099 43.6973 1.506 44.1966 2.67945L50.107 16.5653H59.3503V17.563H49.4552L43.2865 3.07307C42.9692 2.33038 42.1699 1.90457 41.3803 2.06301L30.6958 4.21434L20.0087 2.06301C19.2192 1.90457 18.4198 2.32791 18.1025 3.07307L11.9338 17.5605H2.5381V21.0016H10.463L10.2269 21.6676C9.78658 22.9178 9.50127 24.0541 9.35861 25.1434C9.22825 26.1435 9.15692 27.1536 9.14954 28.1413L9.13725 29.8619L12.5561 29.8867L12.5684 28.1661C12.5758 27.3046 12.6373 26.4381 12.748 25.589C12.957 24.0095 13.5473 22.4672 14.0393 21.3012L14.1672 20.9967H47.2219L47.3498 21.2987C47.8417 22.4647 48.4345 24.0046 48.6411 25.584C48.7543 26.4332 48.8133 27.3021 48.8231 28.1636L48.8354 29.8842L52.2543 29.8594L52.242 28.1389C52.2346 27.1511 52.1633 26.141 52.0329 25.1359C51.8878 24.0442 51.605 22.9079 51.1647 21.6626L50.9286 20.9967H59.3454V21.9944H52.3182C52.6552 23.0514 52.8839 24.0417 53.0118 25.0047C53.1471 26.0494 53.2209 27.1016 53.2283 28.129L53.248 30.8447L47.8491 30.8868L47.8565 30.8943ZM45.7388 17.5654H15.6552L20.6999 5.71457L30.3613 7.66042C30.5826 7.70498 30.8114 7.70498 31.0327 7.66042L40.6916 5.71457L45.7388 17.5654ZM17.1556 16.5678H44.2359L40.0989 6.85089L31.227 8.6383C30.8753 8.70762 30.5187 8.70762 30.1694 8.6383L21.2951 6.85089L17.158 16.5678H17.1556Z" fill="black"/>
<path d="M57.2916 26.9556H4.09998V30.5304H57.2891V26.9556H57.2916Z" fill="black"/>
<path d="M57.786 31.0305H3.60559V26.458H57.786V31.0305ZM4.59682 30.0328H56.7972V27.4532H4.59682V30.0328Z" fill="black"/>
<path d="M50.7146 43.0496H35.5142L32.7225 37.9176V27.208H53.89V37.8656L50.7146 43.0521V43.0496ZM38.2517 38.4004H48.1345L49.2684 36.5486V31.8597H37.3417V36.7293L38.2517 38.4004Z" fill="black"/>
<path d="M25.6317 43.0496H10.4313L7.63965 37.9176V27.208H28.8071V37.8656L25.6342 43.0521L25.6317 43.0496ZM13.1689 38.4004H23.0516L24.1855 36.5486V31.8597H12.2588V36.7293L13.1689 38.4004Z" fill="black"/>
<path d="M17.2786 3.75139L18.255 1.21387L20.6335 1.68671L17.2786 3.75139Z" fill="black"/>
<path d="M16.2874 4.94471L17.9451 0.644531L21.974 1.44664L16.2874 4.94471ZM18.5674 1.78332L18.2698 2.55572L19.293 1.92691L18.5674 1.78332Z" fill="black"/>
<path d="M44.0711 3.75139L43.0946 1.21387L40.7162 1.68671L44.0711 3.75139Z" fill="black"/>
<path d="M45.0599 4.94471L39.3733 1.44664L43.4021 0.644531L45.0599 4.94471ZM42.0567 1.92691L43.0799 2.55572L42.7823 1.78332L42.0567 1.92691Z" fill="black"/>
</svg>
