<svg width="32" height="26" viewBox="0 0 32 26" fill="none" xmlns="http://www.w3.org/2000/svg">
<path d="M28.8861 11.4868H8.47906C7.04698 11.4868 5.88605 12.6477 5.88605 14.0798V22.922C5.88605 24.3541 7.04698 25.515 8.47906 25.515H28.8861C30.3182 25.515 31.4791 24.3541 31.4791 22.922V14.0798C31.4791 12.6477 30.3182 11.4868 28.8861 11.4868Z" fill="#ADD9E8" style="fill:#ADD9E8;fill:color(display-p3 0.6784 0.8510 0.9098);fill-opacity:1;"/>
<path d="M31.4791 15.1689H5.88611V17.9953H31.4791V15.1689Z" fill="#283953" style="fill:#283953;fill:color(display-p3 0.1569 0.2235 0.3255);fill-opacity:1;"/>
<path d="M29.5863 19.292H25.8783V19.9662H29.5863V19.292Z" fill="#283953" style="fill:#283953;fill:color(display-p3 0.1569 0.2235 0.3255);fill-opacity:1;"/>
<path d="M29.301 12.187C30.4419 12.524 30.6753 13.6909 30.7272 14.7281C30.7272 14.8578 30.9346 14.8578 30.9346 14.7281C30.8568 13.5872 30.5716 12.3685 29.3529 12.0054C29.2232 11.9795 29.1714 12.161 29.301 12.2129V12.187Z" fill="#8FC7DD" style="fill:#8FC7DD;fill:color(display-p3 0.5608 0.7804 0.8667);fill-opacity:1;"/>
<path d="M30.8309 21.2628C30.8309 22.0407 30.8309 22.8445 30.5198 23.5706C30.2345 24.2966 29.6122 24.6337 28.8862 24.8152C28.7565 24.8411 28.8084 25.0486 28.938 25.0226C29.5604 24.8411 30.1567 24.5818 30.5198 24.0114C31.0124 23.2335 31.0124 22.1444 31.0124 21.2628C31.0124 21.1331 30.805 21.1331 30.805 21.2628H30.8309Z" fill="#8FC7DD" style="fill:#8FC7DD;fill:color(display-p3 0.5608 0.7804 0.8667);fill-opacity:1;"/>
<path d="M30.9087 20.77H30.8569C30.7272 20.7181 30.6754 20.9256 30.805 20.9774C30.8828 21.0033 30.9606 21.0033 31.0384 20.9774C31.168 20.9256 31.0384 20.744 30.9347 20.7959L30.9087 20.77Z" fill="#8FC7DD" style="fill:#8FC7DD;fill:color(display-p3 0.5608 0.7804 0.8667);fill-opacity:1;"/>
<path d="M31.0125 20.3032C30.9606 20.3032 30.9087 20.3032 30.8569 20.3032C30.7272 20.2513 30.6754 20.4588 30.805 20.5106C30.8828 20.5106 30.9347 20.5365 31.0125 20.5106C31.1421 20.5106 31.1421 20.3032 31.0125 20.3032Z" fill="#8FC7DD" style="fill:#8FC7DD;fill:color(display-p3 0.5608 0.7804 0.8667);fill-opacity:1;"/>
<path d="M31.0125 19.9663H30.8569C30.7272 19.9663 30.7272 20.1738 30.8569 20.1738H31.0125C31.1421 20.1738 31.1421 19.9663 31.0125 19.9663Z" fill="#8FC7DD" style="fill:#8FC7DD;fill:color(display-p3 0.5608 0.7804 0.8667);fill-opacity:1;"/>
<path d="M26.5783 11.9277H12.8094C12.6797 11.9277 12.6797 12.1352 12.8094 12.1352H26.5783C26.7079 12.1352 26.7079 11.9277 26.5783 11.9277Z" fill="#8FC7DD" style="fill:#8FC7DD;fill:color(display-p3 0.5608 0.7804 0.8667);fill-opacity:1;"/>
<path d="M8.16796 11.9537C7.62343 12.0315 7.23447 12.4204 6.94924 12.8872C6.56029 13.5095 6.56029 14.0799 6.53436 14.78C6.53436 14.9097 6.7418 14.9097 6.7418 14.78C6.79366 13.7947 7.00111 12.3426 8.21982 12.1352C8.34947 12.1352 8.29761 11.9277 8.16796 11.9277V11.9537Z" fill="#8FC7DD" style="fill:#8FC7DD;fill:color(display-p3 0.5608 0.7804 0.8667);fill-opacity:1;"/>
<path d="M8.55696 12.0318C8.55696 12.0577 8.55696 12.0837 8.55696 12.1096C8.55696 12.2392 8.7644 12.2392 8.7644 12.1096C8.7644 12.0577 8.7644 12.0059 8.7644 11.954C8.71254 11.8244 8.53103 11.8762 8.55696 12.0059V12.0318Z" fill="#8FC7DD" style="fill:#8FC7DD;fill:color(display-p3 0.5608 0.7804 0.8667);fill-opacity:1;"/>
<path d="M8.86807 12.0573C8.86807 12.0573 8.86807 12.0573 8.86807 12.0833C8.86807 12.2129 9.04958 12.2129 9.07551 12.0833C9.07551 12.0314 9.07551 11.9795 9.04958 11.9536C8.97179 11.8499 8.79028 11.9536 8.86807 12.0573Z" fill="#8FC7DD" style="fill:#8FC7DD;fill:color(display-p3 0.5608 0.7804 0.8667);fill-opacity:1;"/>
<path d="M9.12741 12.0575C9.12741 12.1872 9.33486 12.1872 9.33486 12.0575C9.33486 12.0056 9.33485 11.9797 9.30892 11.9538C9.25706 11.8241 9.07555 11.9538 9.12741 12.0575Z" fill="#8FC7DD" style="fill:#8FC7DD;fill:color(display-p3 0.5608 0.7804 0.8667);fill-opacity:1;"/>
<path d="M12.3428 11.9801C12.3428 12.006 12.3428 12.0578 12.3428 12.0838C12.3169 12.2134 12.4984 12.2653 12.5502 12.1356C12.5502 12.0838 12.5502 12.0319 12.5502 11.9801C12.5502 11.8504 12.3428 11.8504 12.3428 11.9801Z" fill="#8FC7DD" style="fill:#8FC7DD;fill:color(display-p3 0.5608 0.7804 0.8667);fill-opacity:1;"/>
<path d="M12.0574 11.9536C12.0574 12.0055 12.0315 12.0314 12.0056 12.0833C11.9796 12.2129 12.1871 12.2648 12.213 12.1351C12.213 12.1351 12.213 12.0833 12.213 12.0573C12.2649 11.9277 12.0834 11.824 12.0315 11.9536H12.0574Z" fill="#8FC7DD" style="fill:#8FC7DD;fill:color(display-p3 0.5608 0.7804 0.8667);fill-opacity:1;"/>
<path d="M11.7723 12.0054C11.7723 12.0054 11.7723 12.0573 11.7723 12.0832C11.7204 12.2129 11.9279 12.2647 11.9797 12.1351C11.9797 12.0832 11.9797 12.0573 11.9797 12.0054C11.9797 11.8758 11.7723 11.8758 11.7723 12.0054Z" fill="#8FC7DD" style="fill:#8FC7DD;fill:color(display-p3 0.5608 0.7804 0.8667);fill-opacity:1;"/>
<path d="M26.8636 11.9799C26.8636 12.0317 26.8376 12.0836 26.8636 12.1614C26.8636 12.291 27.0969 12.291 27.071 12.1614C27.071 12.1095 27.071 12.0836 27.071 12.0317C27.1229 11.9021 26.9154 11.8502 26.8636 11.9799Z" fill="#8FC7DD" style="fill:#8FC7DD;fill:color(display-p3 0.5608 0.7804 0.8667);fill-opacity:1;"/>
<path d="M27.2525 11.9277C27.2266 12.0055 27.2006 12.0573 27.2266 12.1351C27.2525 12.2648 27.4599 12.2129 27.434 12.0833C27.434 12.0833 27.434 12.0833 27.434 12.0573C27.5118 11.9277 27.3303 11.824 27.2525 11.9536V11.9277Z" fill="#8FC7DD" style="fill:#8FC7DD;fill:color(display-p3 0.5608 0.7804 0.8667);fill-opacity:1;"/>
<path d="M27.5378 11.9537C27.5378 11.9537 27.5378 11.9796 27.5378 12.0055C27.4859 12.1352 27.6674 12.2389 27.7193 12.1093C27.7193 12.0574 27.7452 12.0055 27.7452 11.9537C27.7452 11.824 27.5119 11.824 27.5378 11.9537Z" fill="#8FC7DD" style="fill:#8FC7DD;fill:color(display-p3 0.5608 0.7804 0.8667);fill-opacity:1;"/>
<path d="M6.53436 18.3326V22.2999C6.53436 22.4295 6.7418 22.4295 6.7418 22.2999V18.3326C6.7418 18.2029 6.53436 18.2029 6.53436 18.3326Z" fill="#8FC7DD" style="fill:#8FC7DD;fill:color(display-p3 0.5608 0.7804 0.8667);fill-opacity:1;"/>
<path d="M6.68996 22.6631H6.6381C6.50845 22.6631 6.50845 22.8705 6.6381 22.8705H6.68996C6.81961 22.8705 6.81961 22.6631 6.68996 22.6631Z" fill="#8FC7DD" style="fill:#8FC7DD;fill:color(display-p3 0.5608 0.7804 0.8667);fill-opacity:1;"/>
<path d="M6.63807 23C6.63807 23 6.63808 23 6.61215 23.0259C6.50843 23.1037 6.61214 23.2852 6.71587 23.2074C6.76773 23.1815 6.79365 23.1556 6.81958 23.1037C6.87144 22.9741 6.71586 22.8704 6.63807 23Z" fill="#8FC7DD" style="fill:#8FC7DD;fill:color(display-p3 0.5608 0.7804 0.8667);fill-opacity:1;"/>
<path d="M9.49043 24.8928C8.42729 24.8928 7.62346 24.7113 6.9752 23.7778C6.89741 23.6741 6.7159 23.7778 6.79369 23.8815C7.46788 24.8669 8.32357 25.0743 9.4645 25.1003C9.59415 25.1003 9.59415 24.8928 9.4645 24.8928H9.49043Z" fill="#8FC7DD" style="fill:#8FC7DD;fill:color(display-p3 0.5608 0.7804 0.8667);fill-opacity:1;"/>
<path d="M28.186 24.8409V24.8927C28.1341 25.0224 28.3156 25.1261 28.3675 24.9965C28.3934 24.9446 28.3934 24.8928 28.3934 24.8409C28.3934 24.7112 28.16 24.7112 28.186 24.8409Z" fill="#8FC7DD" style="fill:#8FC7DD;fill:color(display-p3 0.5608 0.7804 0.8667);fill-opacity:1;"/>
<path d="M27.823 24.8931V24.9969C27.823 25.1265 28.0304 25.1265 28.0304 24.9969V24.8931C28.0304 24.7635 27.823 24.7635 27.823 24.8931Z" fill="#8FC7DD" style="fill:#8FC7DD;fill:color(display-p3 0.5608 0.7804 0.8667);fill-opacity:1;"/>
<path d="M27.4341 24.9447C27.4341 24.9447 27.4341 24.9447 27.4341 24.9706C27.3822 25.1003 27.5897 25.1522 27.6415 25.0225C27.6674 24.9447 27.6415 24.8929 27.6415 24.841C27.5897 24.7113 27.4081 24.841 27.46 24.9447H27.4341Z" fill="#8FC7DD" style="fill:#8FC7DD;fill:color(display-p3 0.5608 0.7804 0.8667);fill-opacity:1;"/>
<path d="M10.1646 24.8931C10.1646 24.9709 10.1646 25.0228 10.2423 25.1006C10.3201 25.2043 10.4757 25.0487 10.3979 24.945C10.3979 24.945 10.3979 24.9191 10.3979 24.8931C10.3979 24.7635 10.2164 24.7635 10.1905 24.8931H10.1646Z" fill="#8FC7DD" style="fill:#8FC7DD;fill:color(display-p3 0.5608 0.7804 0.8667);fill-opacity:1;"/>
<path d="M10.5535 24.7895C10.5535 24.8672 10.5535 24.9191 10.5535 24.971C10.5794 25.1006 10.7869 25.0488 10.7609 24.9191V24.8413C10.7869 24.7117 10.5794 24.6598 10.5535 24.7895Z" fill="#8FC7DD" style="fill:#8FC7DD;fill:color(display-p3 0.5608 0.7804 0.8667);fill-opacity:1;"/>
<path d="M10.9166 24.8668V24.9705C10.9166 25.1001 11.124 25.1001 11.124 24.9705V24.8668C11.124 24.7371 10.9166 24.7371 10.9166 24.8668Z" fill="#8FC7DD" style="fill:#8FC7DD;fill:color(display-p3 0.5608 0.7804 0.8667);fill-opacity:1;"/>
<path d="M25.9042 24.8672H11.7982C11.6686 24.8672 11.6686 25.0746 11.7982 25.0746H25.9042C26.0339 25.0746 26.0339 24.8672 25.9042 24.8672Z" fill="#8FC7DD" style="fill:#8FC7DD;fill:color(display-p3 0.5608 0.7804 0.8667);fill-opacity:1;"/>
<g style="mix-blend-mode:multiply" opacity="0.5">
<path d="M23.2853 0.285156H2.87826C1.44618 0.285156 0.285248 1.44609 0.285248 2.87817V11.7203C0.285248 13.1524 1.44618 14.3134 2.87826 14.3134H23.2853C24.7174 14.3134 25.8783 13.1524 25.8783 11.7203V2.87817C25.8783 1.44609 24.7174 0.285156 23.2853 0.285156Z" fill="#A7AEBC" style="fill:#A7AEBC;fill:color(display-p3 0.6549 0.6824 0.7373);fill-opacity:1;"/>
</g>
<path d="M23 0H2.59301C1.16093 0 0 1.16093 0 2.59301V11.4352C0 12.8673 1.16093 14.0282 2.59301 14.0282H23C24.4321 14.0282 25.593 12.8673 25.593 11.4352V2.59301C25.593 1.16093 24.4321 0 23 0Z" fill="#A8E1D0" style="fill:#A8E1D0;fill:color(display-p3 0.6588 0.8824 0.8157);fill-opacity:1;"/>
<path d="M5.80833 2.77441H3.18938C2.77408 2.77441 2.43741 3.11108 2.43741 3.52639V5.10813C2.43741 5.52343 2.77408 5.8601 3.18938 5.8601H5.80833C6.22363 5.8601 6.5603 5.52343 6.5603 5.10813V3.52639C6.5603 3.11108 6.22363 2.77441 5.80833 2.77441Z" fill="#283953" style="fill:#283953;fill:color(display-p3 0.1569 0.2235 0.3255);fill-opacity:1;"/>
<path d="M6.30092 8.53076H2.64478V8.86785H6.30092V8.53076Z" fill="#283953" style="fill:#283953;fill:color(display-p3 0.1569 0.2235 0.3255);fill-opacity:1;"/>
<path d="M11.824 8.53076H8.16788V8.86785H11.824V8.53076Z" fill="#283953" style="fill:#283953;fill:color(display-p3 0.1569 0.2235 0.3255);fill-opacity:1;"/>
<path d="M17.5028 8.53076H13.8466V8.86785H17.5028V8.53076Z" fill="#283953" style="fill:#283953;fill:color(display-p3 0.1569 0.2235 0.3255);fill-opacity:1;"/>
<path d="M22.9221 8.53076H19.266V8.86785H22.9221V8.53076Z" fill="#283953" style="fill:#283953;fill:color(display-p3 0.1569 0.2235 0.3255);fill-opacity:1;"/>
<path d="M13.8466 10.1904H2.64478V10.5275H13.8466V10.1904Z" fill="#283953" style="fill:#283953;fill:color(display-p3 0.1569 0.2235 0.3255);fill-opacity:1;"/>
<path d="M22.8962 10.1904H15.195V10.5275H22.8962V10.1904Z" fill="#283953" style="fill:#283953;fill:color(display-p3 0.1569 0.2235 0.3255);fill-opacity:1;"/>
<path d="M23.2852 0.777829C24.6335 1.19271 24.7113 2.69666 24.7373 3.88944C24.7373 4.0191 24.9447 4.0191 24.9447 3.88944C24.9188 2.59294 24.7891 1.0112 23.337 0.570391C23.2074 0.544461 23.1555 0.725969 23.2852 0.777829Z" fill="#7AC0AB" style="fill:#7AC0AB;fill:color(display-p3 0.4784 0.7529 0.6706);fill-opacity:1;"/>
<path d="M24.9188 4.1748C24.8669 4.1748 24.8151 4.17481 24.7632 4.20074C24.6336 4.2526 24.7632 4.43411 24.8669 4.38225C24.8669 4.38225 24.8929 4.38225 24.9188 4.38225C25.0484 4.38225 25.0484 4.1748 24.9188 4.1748Z" fill="#7AC0AB" style="fill:#7AC0AB;fill:color(display-p3 0.4784 0.7529 0.6706);fill-opacity:1;"/>
<path d="M24.8928 4.71916C25.0224 4.71916 25.0224 4.51172 24.8928 4.51172H24.815C24.6853 4.51172 24.6853 4.71916 24.815 4.71916H24.8928C25.0224 4.71916 25.0224 4.51172 24.8928 4.51172C24.7631 4.51172 24.7631 4.71916 24.8928 4.71916Z" fill="#7AC0AB" style="fill:#7AC0AB;fill:color(display-p3 0.4784 0.7529 0.6706);fill-opacity:1;"/>
<path d="M24.8669 4.79682C24.8669 4.84868 24.9187 4.92647 24.9446 4.97833C25.0224 4.87461 24.8928 4.71903 24.7891 4.82275C24.7372 4.90054 24.7891 4.97833 24.8669 5.00426C24.8928 5.00426 24.9446 5.00426 24.9706 4.97833C25.1002 4.92647 24.9706 4.74496 24.8669 4.79682Z" fill="#7AC0AB" style="fill:#7AC0AB;fill:color(display-p3 0.4784 0.7529 0.6706);fill-opacity:1;"/>
<path d="M24.8151 9.82722C24.8151 10.6051 24.8151 11.409 24.5039 12.135C24.2187 12.861 23.5963 13.1981 22.8703 13.3796C22.7406 13.4056 22.7925 13.613 22.9222 13.5871C23.5445 13.4056 24.1409 13.1463 24.5039 12.5758C24.9966 11.7979 24.9966 10.7088 24.9966 9.82722C24.9966 9.69757 24.7891 9.69757 24.7891 9.82722H24.8151Z" fill="#7AC0AB" style="fill:#7AC0AB;fill:color(display-p3 0.4784 0.7529 0.6706);fill-opacity:1;"/>
<path d="M24.8928 9.33491H24.8409C24.7112 9.28305 24.6594 9.4905 24.789 9.54236C24.8668 9.56829 24.9446 9.56829 25.0224 9.54236C25.1521 9.4905 25.0224 9.30899 24.9187 9.36085L24.8928 9.33491Z" fill="#7AC0AB" style="fill:#7AC0AB;fill:color(display-p3 0.4784 0.7529 0.6706);fill-opacity:1;"/>
<path d="M24.9965 8.894C24.9446 8.894 24.8927 8.894 24.8409 8.894C24.7112 8.84214 24.6594 9.04957 24.789 9.10143C24.8668 9.10143 24.9187 9.12736 24.9965 9.10143C25.1261 9.10143 25.1261 8.894 24.9965 8.894Z" fill="#7AC0AB" style="fill:#7AC0AB;fill:color(display-p3 0.4784 0.7529 0.6706);fill-opacity:1;"/>
<path d="M24.9966 8.55664H24.841C24.7114 8.55664 24.7114 8.76409 24.841 8.76409H24.9966C25.1262 8.76409 25.1262 8.55664 24.9966 8.55664Z" fill="#7AC0AB" style="fill:#7AC0AB;fill:color(display-p3 0.4784 0.7529 0.6706);fill-opacity:1;"/>
<path d="M20.5625 0.518555H6.79365C6.664 0.518555 6.664 0.726 6.79365 0.726H20.5625C20.6922 0.726 20.6922 0.518555 20.5625 0.518555Z" fill="#7AC0AB" style="fill:#7AC0AB;fill:color(display-p3 0.4784 0.7529 0.6706);fill-opacity:1;"/>
<path d="M2.1521 0.544492C0.725942 0.777863 0.414783 2.6189 0.518504 3.78576C0.518504 3.91541 0.725942 3.91541 0.725942 3.78576C0.622221 2.69669 0.855596 0.959378 2.20396 0.751937C2.33361 0.751937 2.28175 0.518562 2.1521 0.544492Z" fill="#7AC0AB" style="fill:#7AC0AB;fill:color(display-p3 0.4784 0.7529 0.6706);fill-opacity:1;"/>
<path d="M2.54109 0.596253C2.54109 0.622183 2.54109 0.64811 2.54109 0.67404C2.54109 0.803691 2.74854 0.803691 2.74854 0.67404C2.74854 0.62218 2.74854 0.570318 2.74854 0.518458C2.69668 0.388807 2.51516 0.44067 2.54109 0.570321V0.596253Z" fill="#7AC0AB" style="fill:#7AC0AB;fill:color(display-p3 0.4784 0.7529 0.6706);fill-opacity:1;"/>
<path d="M2.8522 0.622274C2.8522 0.622274 2.8522 0.622268 2.8522 0.648198C2.8522 0.777848 3.0337 0.777848 3.05963 0.648198C3.05963 0.596337 3.05964 0.544477 3.03371 0.518547C2.95592 0.414827 2.77441 0.518553 2.8522 0.622274Z" fill="#7AC0AB" style="fill:#7AC0AB;fill:color(display-p3 0.4784 0.7529 0.6706);fill-opacity:1;"/>
<path d="M3.11158 0.622457C3.11158 0.752107 3.31901 0.752107 3.31901 0.622457C3.31901 0.570596 3.31902 0.54466 3.29309 0.51873C3.24123 0.389079 3.05972 0.518736 3.11158 0.622457Z" fill="#7AC0AB" style="fill:#7AC0AB;fill:color(display-p3 0.4784 0.7529 0.6706);fill-opacity:1;"/>
<path d="M6.3268 0.570383C6.3268 0.596313 6.3268 0.648171 6.3268 0.674101C6.30087 0.803752 6.48238 0.855615 6.53424 0.725965C6.53424 0.674105 6.53424 0.622243 6.53424 0.570383C6.53424 0.440732 6.3268 0.440732 6.3268 0.570383Z" fill="#7AC0AB" style="fill:#7AC0AB;fill:color(display-p3 0.4784 0.7529 0.6706);fill-opacity:1;"/>
<path d="M6.04165 0.518076C6.04165 0.569936 6.01572 0.595866 5.98979 0.647726C5.96386 0.777377 6.1713 0.82924 6.19723 0.69959C6.19723 0.69959 6.19723 0.647732 6.19723 0.621802C6.24909 0.492152 6.06758 0.388425 6.01572 0.518076H6.04165Z" fill="#7AC0AB" style="fill:#7AC0AB;fill:color(display-p3 0.4784 0.7529 0.6706);fill-opacity:1;"/>
<path d="M5.75642 0.570382C5.75642 0.570382 5.75642 0.62224 5.75642 0.64817C5.70456 0.77782 5.912 0.829684 5.96386 0.700033C5.96386 0.648173 5.96386 0.622243 5.96386 0.570382C5.96386 0.440732 5.75642 0.440732 5.75642 0.570382Z" fill="#7AC0AB" style="fill:#7AC0AB;fill:color(display-p3 0.4784 0.7529 0.6706);fill-opacity:1;"/>
<path d="M20.8477 0.544337C20.8477 0.596197 20.8218 0.64806 20.8477 0.725851C20.8477 0.855501 21.0811 0.855501 21.0552 0.725851C21.0552 0.67399 21.0552 0.64806 21.0552 0.5962C21.107 0.466549 20.8996 0.414686 20.8477 0.544337Z" fill="#7AC0AB" style="fill:#7AC0AB;fill:color(display-p3 0.4784 0.7529 0.6706);fill-opacity:1;"/>
<path d="M21.2366 0.51819C21.2107 0.595981 21.1848 0.647846 21.2107 0.725636C21.2366 0.855287 21.4441 0.803423 21.4181 0.673773C21.4181 0.673773 21.4181 0.673771 21.4181 0.647841C21.4959 0.544121 21.3144 0.414472 21.2366 0.544122V0.51819Z" fill="#7AC0AB" style="fill:#7AC0AB;fill:color(display-p3 0.4784 0.7529 0.6706);fill-opacity:1;"/>
<path d="M21.5219 0.544504C21.5219 0.544504 21.5219 0.570437 21.5219 0.596367C21.4701 0.726018 21.6516 0.829737 21.7035 0.700086C21.7035 0.648226 21.7294 0.596364 21.7294 0.544504C21.7294 0.414853 21.496 0.414853 21.5219 0.544504Z" fill="#7AC0AB" style="fill:#7AC0AB;fill:color(display-p3 0.4784 0.7529 0.6706);fill-opacity:1;"/>
<path d="M0.674081 4.1746C0.622221 4.1746 0.570363 4.1746 0.518503 4.1746C0.388852 4.1746 0.388852 4.38205 0.518503 4.38205C0.596293 4.38205 0.64815 4.38205 0.72594 4.38205C0.855591 4.35612 0.803732 4.14867 0.674081 4.1746Z" fill="#7AC0AB" style="fill:#7AC0AB;fill:color(display-p3 0.4784 0.7529 0.6706);fill-opacity:1;"/>
<path d="M0.648165 4.53759C0.622235 4.53759 0.570373 4.53759 0.544443 4.53759C0.414792 4.53759 0.414792 4.74503 0.544443 4.74503C0.622233 4.74503 0.674094 4.74503 0.751884 4.69317C0.881535 4.64131 0.751886 4.4598 0.648165 4.51166V4.53759Z" fill="#7AC0AB" style="fill:#7AC0AB;fill:color(display-p3 0.4784 0.7529 0.6706);fill-opacity:1;"/>
<path d="M0.674081 4.87459C0.622221 4.87459 0.570363 4.90052 0.518503 4.90052C0.388852 4.90052 0.388852 5.10796 0.518503 5.10796C0.596293 5.10796 0.64815 5.10796 0.72594 5.08203C0.855591 5.03017 0.803732 4.84866 0.674081 4.87459Z" fill="#7AC0AB" style="fill:#7AC0AB;fill:color(display-p3 0.4784 0.7529 0.6706);fill-opacity:1;"/>
<path d="M0.518494 5.7823V10.8905C0.518494 11.0202 0.725932 11.0202 0.725932 10.8905V5.7823C0.725932 5.65265 0.518494 5.65265 0.518494 5.7823Z" fill="#7AC0AB" style="fill:#7AC0AB;fill:color(display-p3 0.4784 0.7529 0.6706);fill-opacity:1;"/>
<path d="M0.674091 11.2534H0.622232C0.492581 11.2534 0.492581 11.4609 0.622232 11.4609H0.674091C0.803742 11.4609 0.803742 11.2534 0.674091 11.2534Z" fill="#7AC0AB" style="fill:#7AC0AB;fill:color(display-p3 0.4784 0.7529 0.6706);fill-opacity:1;"/>
<path d="M0.622208 11.5903C0.622208 11.5903 0.622206 11.5903 0.596276 11.6163C0.492556 11.6941 0.596279 11.8756 0.699999 11.7978C0.751859 11.7719 0.777788 11.7459 0.803718 11.6941C0.855578 11.5644 0.699998 11.4607 0.622208 11.5903Z" fill="#7AC0AB" style="fill:#7AC0AB;fill:color(display-p3 0.4784 0.7529 0.6706);fill-opacity:1;"/>
<path d="M3.47447 13.4836C2.41133 13.4836 1.6075 13.3021 0.959244 12.3686C0.881454 12.2649 0.699943 12.3686 0.777734 12.4724C1.45192 13.4577 2.30761 13.6652 3.44853 13.6911C3.57818 13.6911 3.57818 13.4836 3.44853 13.4836H3.47447Z" fill="#7AC0AB" style="fill:#7AC0AB;fill:color(display-p3 0.4784 0.7529 0.6706);fill-opacity:1;"/>
<path d="M22.1701 13.4317C22.1701 13.4317 22.1701 13.4576 22.1701 13.4836C22.1182 13.6132 22.2998 13.7169 22.3516 13.5873C22.3775 13.5354 22.3775 13.4836 22.3775 13.4317C22.3775 13.3021 22.1442 13.3021 22.1701 13.4317Z" fill="#7AC0AB" style="fill:#7AC0AB;fill:color(display-p3 0.4784 0.7529 0.6706);fill-opacity:1;"/>
<path d="M21.8071 13.4576V13.5613C21.8071 13.691 22.0146 13.691 22.0146 13.5613V13.4576C22.0146 13.3279 21.8071 13.3279 21.8071 13.4576Z" fill="#7AC0AB" style="fill:#7AC0AB;fill:color(display-p3 0.4784 0.7529 0.6706);fill-opacity:1;"/>
<path d="M21.4181 13.5092C21.4181 13.5092 21.4181 13.5092 21.4181 13.5351C21.3662 13.6648 21.5737 13.7166 21.6255 13.587C21.6515 13.5092 21.6255 13.4573 21.6255 13.4055C21.5737 13.2758 21.3922 13.4054 21.444 13.5092H21.4181Z" fill="#7AC0AB" style="fill:#7AC0AB;fill:color(display-p3 0.4784 0.7529 0.6706);fill-opacity:1;"/>
<path d="M4.1488 13.4835C4.1488 13.5613 4.1488 13.6131 4.22659 13.6909C4.30438 13.7946 4.45996 13.6391 4.38217 13.5353C4.38217 13.5353 4.38217 13.5094 4.38217 13.4835C4.38217 13.3538 4.20066 13.3538 4.17473 13.4835H4.1488Z" fill="#7AC0AB" style="fill:#7AC0AB;fill:color(display-p3 0.4784 0.7529 0.6706);fill-opacity:1;"/>
<path d="M4.53772 13.3798C4.53772 13.4576 4.53772 13.5094 4.53772 13.5613C4.56365 13.691 4.77109 13.6391 4.74516 13.5094V13.4316C4.77109 13.302 4.56365 13.2501 4.53772 13.3798Z" fill="#7AC0AB" style="fill:#7AC0AB;fill:color(display-p3 0.4784 0.7529 0.6706);fill-opacity:1;"/>
<path d="M4.90073 13.4576V13.5613C4.90073 13.691 5.10817 13.691 5.10817 13.5613V13.4576C5.10817 13.3279 4.90073 13.3279 4.90073 13.4576Z" fill="#7AC0AB" style="fill:#7AC0AB;fill:color(display-p3 0.4784 0.7529 0.6706);fill-opacity:1;"/>
<path d="M19.8883 13.4575H5.78236C5.65271 13.4575 5.65271 13.665 5.78236 13.665H19.8883C20.018 13.665 20.018 13.4575 19.8883 13.4575Z" fill="#7AC0AB" style="fill:#7AC0AB;fill:color(display-p3 0.4784 0.7529 0.6706);fill-opacity:1;"/>
</svg>
