<svg width="41" height="26" viewBox="0 0 41 26" fill="none" xmlns="http://www.w3.org/2000/svg">
<path d="M36.44 0.0112537H3.57872C3.44368 0.0112537 3.30863 0.0112537 3.17358 0.0112537C3.06105 0.0112537 2.94851 0.0112537 2.82471 0.0112537C2.57713 0.0225075 2.31829 0.0337612 2.07071 0.0787766C1.82312 0.123792 1.57554 0.202569 1.35046 0.315107C0.900308 0.540184 0.52893 0.911561 0.303853 1.36171C0.191315 1.58679 0.112538 1.82312 0.0675229 2.08196C0.0225075 2.32954 0.0112538 2.58838 0 2.83597C0 2.94851 0 3.06105 0 3.18484C0 3.31988 0 3.45493 0 3.58998V22.0463C0 22.1813 0 22.3164 0 22.4627C0 22.5752 0 22.6878 0 22.8115C0.0112538 23.0591 0.0225075 23.318 0.0675229 23.5655C0.112538 23.8131 0.191315 24.0607 0.303853 24.2858C0.416392 24.5109 0.562691 24.7134 0.742753 24.8935C0.922814 25.0736 1.12538 25.2199 1.35046 25.3324C1.57554 25.4449 1.81187 25.5237 2.07071 25.5687C2.31829 25.6138 2.57713 25.625 2.82471 25.6363C2.93725 25.6363 3.04979 25.6363 3.17358 25.6363C3.30863 25.6363 3.44368 25.6363 3.57872 25.6363H36.44C36.575 25.6363 36.71 25.6363 36.8451 25.6363C36.9576 25.6363 37.0702 25.6363 37.194 25.6363C37.4415 25.625 37.7004 25.6138 37.948 25.5687C38.1956 25.5237 38.4431 25.4449 38.6682 25.3324C39.1184 25.0961 39.4897 24.736 39.7148 24.2858C39.8274 24.0607 39.9061 23.8244 39.9512 23.5655C39.9962 23.318 40.0074 23.0591 40.0187 22.8115C40.0187 22.699 40.0187 22.5865 40.0187 22.4627C40.0187 22.3276 40.0187 22.1926 40.0187 22.0463V3.58998C40.0187 3.45493 40.0187 3.31988 40.0187 3.17358C40.0187 3.06105 40.0187 2.94851 40.0187 2.82471C40.0074 2.57713 39.9962 2.31829 39.9512 2.07071C39.9061 1.82312 39.8274 1.57554 39.7148 1.35046C39.4897 0.900308 39.1184 0.52893 38.6682 0.303853C38.4431 0.191315 38.2068 0.112538 37.948 0.0675229C37.7004 0.0225075 37.4415 0.0112538 37.194 0C37.0814 0 36.9689 0 36.8451 0C36.71 0.0112538 36.575 0.0112537 36.44 0.0112537Z" fill="#010202" style="fill:#010202;fill:color(display-p3 0.0039 0.0078 0.0078);fill-opacity:1;"/>
<path d="M36.44 0.866211H36.8451C36.9577 0.866211 37.059 0.866211 37.1715 0.866211C37.3628 0.866211 37.5879 0.877465 37.8017 0.92248C37.9818 0.956242 38.1393 1.00126 38.2856 1.08003C38.5782 1.22633 38.8146 1.46266 38.9609 1.75526C39.0396 1.90156 39.0847 2.04787 39.1184 2.23918C39.1522 2.44175 39.1634 2.66683 39.1747 2.85814C39.1747 2.97068 39.1747 3.07196 39.1747 3.1845C39.1747 3.31955 39.1747 3.4546 39.1747 3.58964V22.0459C39.1747 22.181 39.1747 22.316 39.1747 22.4511C39.1747 22.5636 39.1747 22.6649 39.1747 22.7774C39.1747 22.9688 39.1634 23.1938 39.1184 23.4077C39.0959 23.5765 39.0396 23.734 38.9609 23.8803C38.8146 24.1729 38.5782 24.4093 38.2856 24.5556C38.1393 24.6343 37.993 24.6793 37.813 24.7131C37.5992 24.7469 37.3628 24.7581 37.194 24.7694C37.0815 24.7694 36.9689 24.7694 36.8564 24.7694C36.7214 24.7694 36.5863 24.7694 36.4513 24.7694H3.59003C3.45499 24.7694 3.31994 24.7694 3.18489 24.7694C3.07236 24.7694 2.97107 24.7694 2.85853 24.7694C2.67847 24.7694 2.44214 24.7581 2.22832 24.7131C2.05951 24.6906 1.90196 24.6343 1.7444 24.5556C1.5981 24.4768 1.46306 24.3867 1.35052 24.2742C1.23798 24.1617 1.13669 24.0266 1.06917 23.8803C0.990394 23.734 0.945377 23.5652 0.911616 23.3964C0.877854 23.1826 0.866601 22.9688 0.855347 22.7774C0.855347 22.6649 0.855347 22.5636 0.855347 22.4511V22.1247V3.51087V3.19576C0.855347 3.08322 0.855347 2.98193 0.855347 2.86939C0.855347 2.67808 0.866601 2.453 0.911616 2.23918C0.934124 2.07037 0.990394 1.91282 1.06917 1.75526C1.14795 1.60896 1.23798 1.47392 1.35052 1.36138C1.46306 1.24884 1.5981 1.14756 1.7444 1.08003C1.8907 1.00126 2.05951 0.956242 2.22832 0.92248C2.44214 0.888719 2.66722 0.877465 2.85853 0.866211C2.97107 0.866211 3.07236 0.866211 3.18489 0.866211H3.59003H36.44Z" fill="white" style="fill:white;fill-opacity:1;"/>
<path d="M10.5223 8.66538C10.8599 8.23774 11.0962 7.67504 11.0287 7.08984C10.5335 7.11235 9.9258 7.41621 9.57693 7.84385C9.26182 8.20398 8.98048 8.80043 9.05925 9.36312C9.61069 9.40814 10.1734 9.08177 10.5223 8.66538Z" fill="#010202" style="fill:#010202;fill:color(display-p3 0.0039 0.0078 0.0078);fill-opacity:1;"/>
<path d="M11.0175 9.46426C10.2072 9.41924 9.52072 9.92567 9.13809 9.92567C8.75546 9.92567 8.159 9.48677 7.51753 9.49802C6.68475 9.50927 5.90823 9.98194 5.49184 10.7359C4.6253 12.2327 5.26676 14.461 6.1108 15.6764C6.5272 16.2841 7.02236 16.9481 7.66383 16.9256C8.28279 16.903 8.51912 16.5317 9.27313 16.5317C10.0271 16.5317 10.241 16.9256 10.8937 16.9143C11.5689 16.9031 11.9966 16.3066 12.4017 15.7101C12.8744 15.0237 13.0657 14.3597 13.0769 14.3147C13.0657 14.3034 11.7715 13.8082 11.7602 12.3227C11.749 11.0736 12.7731 10.4884 12.8293 10.4433C12.2441 9.58805 11.3326 9.48677 11.0175 9.46426Z" fill="#010202" style="fill:#010202;fill:color(display-p3 0.0039 0.0078 0.0078);fill-opacity:1;"/>
<path d="M19.0977 7.77637C20.8533 7.77637 22.0799 8.99178 22.0799 10.7586C22.0799 12.5367 20.8308 13.7522 19.0527 13.7522H17.1057V16.847H15.699V7.77637H19.0977ZM17.1057 12.5705H18.7263C19.953 12.5705 20.6507 11.9065 20.6507 10.7699C20.6507 9.622 19.953 8.96928 18.7375 8.96928H17.117C17.1057 8.96928 17.1057 12.5705 17.1057 12.5705Z" fill="#010202" style="fill:#010202;fill:color(display-p3 0.0039 0.0078 0.0078);fill-opacity:1;"/>
<path d="M22.4288 14.9674C22.4288 13.8083 23.3178 13.1331 24.9496 13.043L26.7052 12.9417V12.4353C26.7052 11.7038 26.2213 11.2987 25.3548 11.2987C24.6458 11.2987 24.1281 11.6588 24.0268 12.2215H22.7551C22.7889 11.0511 23.903 10.1958 25.3998 10.1958C27.0091 10.1958 28.0557 11.0398 28.0557 12.3453V16.8581H26.7502V15.7665H26.7165C26.3451 16.4754 25.5236 16.9256 24.6458 16.9256C23.3403 16.9143 22.4288 16.1378 22.4288 14.9674ZM26.7052 14.3822V13.8758L25.1409 13.9771C24.2631 14.0334 23.8017 14.3597 23.8017 14.9337C23.8017 15.4851 24.2744 15.8452 25.0284 15.8452C25.985 15.8452 26.7052 15.2375 26.7052 14.3822Z" fill="#010202" style="fill:#010202;fill:color(display-p3 0.0039 0.0078 0.0078);fill-opacity:1;"/>
<path d="M29.2487 19.278V18.1864C29.3387 18.1976 29.5525 18.2089 29.6651 18.2089C30.284 18.2089 30.6441 17.95 30.858 17.2636L30.9818 16.8584L28.5959 10.2637H30.0702L31.7245 15.6205H31.7583L33.4126 10.2637H34.8531L32.3772 17.196C31.8145 18.7828 31.1618 19.3118 29.7889 19.3118C29.6876 19.3118 29.35 19.3005 29.2487 19.278Z" fill="#010202" style="fill:#010202;fill:color(display-p3 0.0039 0.0078 0.0078);fill-opacity:1;"/>
</svg>
