<svg width="49" height="26" viewBox="0 0 49 26" fill="none" xmlns="http://www.w3.org/2000/svg">
<path d="M48.8793 0H0V25.7838H48.8793V0Z" fill="#6C1CD3" style="fill:#6C1CD3;fill:color(display-p3 0.4235 0.1098 0.8275);fill-opacity:1;"/>
<path d="M12.3421 8.75731L9.66489 8.73266L9.66488 10.5088H14.1018L9.49081 16.4191V17.9222H12.3421V19.6533H14.0529V17.9222H16.9612C16.9856 17.8529 16.9942 17.6662 16.8394 17.4951C16.5828 17.21 16.3787 16.912 16.1913 16.5373C16.1058 16.3702 16.0408 16.1702 16.0164 16.1539C15.4437 16.1277 12.1489 16.1345 12.1507 16.1136L16.7657 10.1671V8.75731H14.0529V7.00579H12.3421V8.75731Z" fill="white" style="fill:white;fill-opacity:1;"/>
<path d="M24.6965 7.93061C24.6557 7.94691 24.6435 8.8471 24.6435 12.2564C24.6435 16.8633 24.6394 16.7859 24.8431 17.181C25.0264 17.5354 25.4744 17.8531 25.9755 17.9835C26.2524 18.0568 27.0671 18.0649 27.3807 17.9998C27.784 17.9142 27.8614 17.792 27.7025 17.4784C27.6007 17.2829 27.4663 16.8552 27.4337 16.6189C27.3889 16.3379 27.3319 16.2931 26.9897 16.3012C26.8268 16.3053 26.672 16.2931 26.6435 16.2768C26.4765 16.1709 26.4765 16.1423 26.4765 12.0161C26.4765 9.36441 26.4643 8.03245 26.4357 7.97949C26.395 7.90617 26.3421 7.9021 25.5681 7.90617C25.116 7.90617 24.7209 7.91839 24.6965 7.93061Z" fill="white" style="fill:white;fill-opacity:1;"/>
<path d="M28.4316 7.94283C28.3787 7.97542 28.3705 8.49679 28.3705 12.2279C28.3705 16.2482 28.3746 16.4926 28.4479 16.7737C28.5864 17.3277 28.9 17.6657 29.4947 17.9142C29.7228 18.0079 29.8247 18.0242 30.285 18.0364C30.9 18.0527 31.2137 18.0079 31.5273 17.849C31.8369 17.6983 31.845 17.5924 31.5803 17.2055C31.4744 17.0507 31.3114 16.7859 31.2218 16.6189L31.0589 16.3134L30.7615 16.3093C30.3909 16.3012 30.3542 16.2849 30.285 16.1097C30.232 15.9916 30.2239 15.3847 30.2239 12.0161C30.2239 9.3644 30.2116 8.03244 30.1831 7.97949C30.1424 7.90617 30.0894 7.9021 29.3155 7.9021C28.8634 7.9021 28.4642 7.92246 28.4316 7.94283Z" fill="white" style="fill:white;fill-opacity:1;"/>
<path d="M39.2666 8.81879C38.9366 8.9695 38.7656 9.23019 38.7615 9.59272C38.7574 9.90228 38.8837 10.1385 39.1403 10.3055C39.458 10.5214 39.9672 10.4603 40.2319 10.1752C40.57 9.81267 40.5008 9.18539 40.0853 8.90433C39.8694 8.75769 39.4906 8.72103 39.2666 8.81879ZM39.9183 8.9695C40.3786 9.20168 40.4478 9.79638 40.0568 10.1426C39.8898 10.2892 39.7717 10.3218 39.515 10.2974C38.8063 10.2281 38.6678 9.23427 39.3277 8.93692C39.5069 8.85545 39.7146 8.86767 39.9183 8.9695Z" fill="white" style="fill:white;fill-opacity:1;"/>
<path d="M39.2951 9.15249C39.2666 9.20137 39.2625 9.959 39.291 10.0364C39.3032 10.073 39.3399 10.1016 39.3725 10.1016C39.4132 10.1016 39.4295 10.0445 39.4295 9.8979C39.4295 9.7146 39.4376 9.69423 39.5232 9.69423C39.5884 9.69423 39.6454 9.75126 39.735 9.8979C39.8083 10.0201 39.8816 10.1016 39.9264 10.1016C40.0242 10.1016 40.0201 10.0853 39.8694 9.86531C39.7798 9.73497 39.7554 9.67387 39.792 9.66165C39.8979 9.62499 39.9998 9.49057 39.9998 9.38874C39.9998 9.20544 39.8694 9.12398 39.5761 9.12398C39.4295 9.12398 39.3032 9.1362 39.2951 9.15249ZM39.7879 9.28283C39.8205 9.29913 39.8368 9.36023 39.8287 9.41318C39.8165 9.49872 39.792 9.51094 39.625 9.52316L39.4295 9.53538V9.39281C39.4295 9.25025 39.4336 9.24617 39.5843 9.24617C39.6657 9.24617 39.7594 9.26247 39.7879 9.28283Z" fill="white" style="fill:white;fill-opacity:1;"/>
<path d="M19.5723 10.4884C19.5519 10.4965 19.3931 10.5332 19.2261 10.5698C18.1792 10.8102 17.2546 11.6126 16.8636 12.6309C16.6477 13.193 16.5703 13.6289 16.5662 14.2765C16.5622 15.1849 16.7455 15.8529 17.165 16.4883C17.6375 17.2011 18.33 17.6858 19.2261 17.9302C19.5316 18.0117 19.666 18.0239 20.3666 18.0239C21.0591 18.0239 21.2016 18.0117 21.4908 17.9343C22.2077 17.7347 22.8187 17.4048 23.3116 16.9364C23.6252 16.6431 23.6211 16.5616 23.3034 16.3172C23.1731 16.2154 22.9368 15.9954 22.782 15.8244C22.5865 15.6166 22.4684 15.5189 22.4073 15.5189C22.3503 15.5189 22.2199 15.6003 22.0937 15.7225C21.6578 16.1176 21.1079 16.305 20.387 16.3009C19.7271 16.2969 19.2464 16.1258 18.9409 15.7755C18.7862 15.6003 18.5906 15.2011 18.5499 14.9771L18.5255 14.8264H21.0631C22.4603 14.8264 23.6293 14.8101 23.6578 14.7897C23.7922 14.7042 23.8248 14.1136 23.727 13.47C23.4949 11.9303 22.5743 10.8957 21.1283 10.5495C20.8717 10.4884 20.6599 10.468 20.2037 10.4721C19.8778 10.4721 19.5967 10.4802 19.5723 10.4884ZM20.6599 12.0606C20.9572 12.1217 21.3238 12.3254 21.4949 12.5209C21.6538 12.7002 21.8167 13.0219 21.8574 13.2297L21.8859 13.36H20.224H18.5662L18.5947 13.2297C18.7169 12.6798 19.1894 12.2195 19.776 12.0729C20.0367 12.0077 20.387 12.0036 20.6599 12.0606Z" fill="white" style="fill:white;fill-opacity:1;"/>
<path d="M34.3787 10.5255C32.9326 10.8473 31.9551 11.8656 31.6496 13.3687C31.4663 14.2567 31.5681 15.2913 31.9143 16.0326C32.3868 17.0591 33.2463 17.723 34.4194 17.9633C34.7901 18.0407 34.9367 18.0489 35.5192 18.0326C36.012 18.0163 36.2768 17.9878 36.5049 17.9267C37.2014 17.7434 37.8124 17.4094 38.2809 16.9613C38.6393 16.6151 38.6393 16.5988 38.2523 16.277C38.0731 16.1304 37.8328 15.8982 37.7187 15.7638C37.454 15.4583 37.3847 15.4542 37.0874 15.723C36.6434 16.1263 36.1139 16.3055 35.3766 16.3014C34.342 16.2974 33.7392 15.8534 33.5436 14.9573L33.5151 14.8516H38.676C38.8511 14.7253 38.7859 13.389 38.5741 12.7699C38.5334 12.6477 38.4234 12.4033 38.3338 12.2322C37.8572 11.3198 37.0955 10.7536 36.0365 10.5296C35.6984 10.4563 34.7004 10.4563 34.3787 10.5255ZM35.6495 12.0612C35.9265 12.1223 36.2116 12.2648 36.4153 12.4481C36.5864 12.607 36.8634 13.108 36.8634 13.2628V13.3605H33.5559L33.5844 13.2465C33.7962 12.3748 34.6923 11.8575 35.6495 12.0612Z" fill="white" style="fill:white;fill-opacity:1;"/>
</svg>
