<?xml version="1.0" encoding="utf-8"?>
<!-- Generator: Adobe Illustrator 27.7.0, SVG Export Plug-In . SVG Version: 6.00 Build 0)  -->
<svg version="1.2" baseProfile="tiny" id="Layer_1" xmlns="http://www.w3.org/2000/svg" xmlns:xlink="http://www.w3.org/1999/xlink"
	 x="0px" y="0px" viewBox="0 0 328.2 352.1" overflow="visible" xml:space="preserve">
<g>
	<path d="M175.4,346.1c-1,7.1-0.8,5.9-6.8,5.9c-35.5,0-71,0-106.5,0c-5.8,0-6.2,0.2-6.1-6c0.1-14.2,0-28.3,0-42.5c0-1.7,0-3.3,0-4.8
		c-1.3-1.2-2.7-0.7-4-0.7c-7.5,0-15,0-22.5,0c-4.4,0-4.5-0.2-4.5-4.5c0-15.3,0-30.7,0-46c0-1.3,0-2.6,0-4.4c-6,0-11.8,0-17.9,0
		c0-18.2,0-35.9,0-53.9c-2.4,0-4.4,0-6,0c-1.5-1.2-1.1-2.4-1.1-3.5c0-25.3,0-50.7,0-76c0-0.5,0-1,0-1.5c0.2-2.5,0.7-3,3.4-3.2
		c1,0,2,0,3,0c26.3,0,52.7,0,79,0c1.7,0,3.3,0,4.8,0c1.1-1.1,0.8-2.3,0.5-3.4c-2.7-9.8-5-19.6-6.9-29.5c-0.8-4-2-7.9-2.9-11.9
		c-2-8.4-4-16.8-6-25.2c-2.4-10.3-4.7-20.7-7.1-31c-0.2-0.8-0.6-1.5-0.9-2.1c0.7-1.3,1.5-2,2.8-1.9c0.7,0,1.3,0,2,0
		c26.3,0,52.7,0,79,0c0.8,0,1.6,0,2.4,0c2.3,4.2,1.9,8.8,2.7,13c3.7,20.3,9.7,39.8,20.1,57.7c5.8,10,13.1,18.6,23,24.9
		c3.7,2.4,7.6,4,11.7,5.1c11.1,3,21.9,6.9,32.4,11.4c7.7,3.3,15.1,7.3,22.4,11.7c6.8,4.1,13.3,8.6,19.3,13.7
		c5.8,4.9,11.8,9.6,16.4,15.9c2.4,3.3,5.1,6.5,7.6,9.7c5.2,6.7,8.6,14.4,12.2,22c3,6.2,4.4,13,5.8,19.7c1.1,5.3,1.4,10.8,1.4,16.3
		c0,12.8-2.1,25.1-5.7,37.3c-3.9,13.1-10.1,24.9-17.7,36.1c-1.8,2.7-4.1,5.2-6.4,7.6c-3.3,3.4-6.5,6.9-10,10.2
		c-16.3,15.6-35.9,24.8-57.3,30.5c-4.5,1.2-9.3,1.8-14.1,2.4c-12.3,1.6-24.6,0.5-36.8,0.9C178.6,346.2,177,346.1,175.4,346.1z
		 M175,316.4c1.7,0.8,3,0.5,4.3,0.5c7.8,0,15.7,0,23.5,0c6.6,0,13.2-0.9,19.6-2.3c10.5-2.2,20.4-6.2,29.6-11.7
		c6.3-3.7,11.9-8.3,17.5-12.9c2.3-1.9,3.6-4.7,5.8-6.8c2.7-2.5,4.7-5.5,6.8-8.5c6.3-8.6,10-18.4,12.8-28.6c2.3-8.4,3.6-17,3.2-25.8
		c-0.1-2.2-0.8-4.2-1-6.3c-0.6-8.5-3.4-16.3-7-23.9c-4.2-8.7-9.7-16.5-16.5-23.2c-2.9-2.9-6-5.7-9.2-8.4
		c-6.4-5.2-13.3-9.7-20.5-13.7c-10-5.4-20.6-9.5-31.4-13c-5.9-1.9-12-3.5-17.7-5.8c-15.4-6-27.5-16.4-37.2-29.5
		c-9.4-12.6-16.2-26.6-21.5-41.4c-4.1-11.4-6.9-23.1-9.3-35c-8.2,0-16.3,0-24.1,0c0.6,3.2,1.1,6.3,1.8,9.3
		c1.8,7.8,3.8,15.5,5.7,23.3c2,8.4,4.2,16.8,5.9,25.2c1.6,8,4.1,15.8,5.3,23.9c0.2,1,0.6,2.2,1.8,2.9c4.2,0,8.6-0.1,12.9,0
		c2.4,0,2.9,0.7,3.1,2.9c0.1,1.2,0,2.3,0,3.5c0,14.5,0,29,0,43.5c0,1.3-0.5,2.7,0.8,4.2c6.4,0,13.2,0,19.9,0
		c0.8,9.8,0.5,79.9-0.3,83.6c-1.7,0.7-3.6-0.3-5.2,0.8c0,8,0,16,0,24.3c5.3,0,10.4,0,15.5,0c5.2,0,5.2,0.1,5.2,5.3c0,2.3,0,4.7,0,7
		C175,292.3,175,304.3,175,316.4z M39.2,211.8c14.8,0.7,84.5,0.4,88.9-0.4c0-3.4,0-6.9,0-10.4c0-3.6,0.1-7.2-0.1-10.7
		c-14.3-0.7-84.6-0.4-88.8,0.4C39.2,197.6,39.2,204.5,39.2,211.8z M107.8,136.4c-8.9-0.8-72.9-0.5-76.7,0.3c0,3.6-0.1,7.3,0,10.9
		c0.1,3.8-0.5,7.6,0.3,11.1c25.6,0,50.9,0,76.4,0C107.8,151.3,107.8,144,107.8,136.4z M55.1,267.7c22.9,0,45.3,0,67.7,0
		c0-8.2,0-16.1,0-24.5c-1.8,0-3.4,0-5.1,0c-13.2,0-26.3,0-39.5,0c-6.7,0-13.3,0-20,0c-2.7,0-3.2,0.5-3.2,3.2
		C55.1,253.4,55.1,260.3,55.1,267.7z M144.1,322.8c0-4.3,0-8.3,0-12.2c0-4.1,0.1-8.2-0.1-12.3c-19.5,0-38.6,0-57.6,0
		c0,8.3,0,16.4,0,24.5C105.5,322.8,124.5,322.8,144.1,322.8z"/>
</g>
</svg>
