<svg width="22" height="19" viewBox="0 0 22 19" fill="none" xmlns="http://www.w3.org/2000/svg">
<path d="M22 0.175108L21.4448 4.13459C20.3344 4.04197 19.4322 4.22721 18.7382 4.6903C18.0442 5.13025 17.5584 5.77858 17.2808 6.63531C17.0263 7.46889 16.98 8.44139 17.142 9.55282H22V19H12.5615V9.55282C12.5615 6.21853 13.3365 3.69465 14.8864 1.98119C16.4364 0.267729 18.8076 -0.334298 22 0.175108ZM9.43849 0.175108L8.88328 4.13459C7.77287 4.04197 6.87066 4.22721 6.17666 4.6903C5.48265 5.13025 4.99685 5.77858 4.71924 6.63531C4.46477 7.46889 4.41851 8.44139 4.58044 9.55282H9.43849V19H0V9.55282C0 6.21853 0.774974 3.69465 2.32492 1.98119C3.87487 0.267729 6.24606 -0.334298 9.43849 0.175108Z" fill="#948AFF" style="fill:#948AFF;fill:color(display-p3 0.5804 0.5412 1.0000);fill-opacity:1;"/>
</svg>
