<svg width="65" height="65" viewBox="0 0 65 65" fill="none" xmlns="http://www.w3.org/2000/svg">
<g clip-path="url(#clip0_341_5061)">
<rect width="7.86047" height="3.95405" transform="translate(4.74316 40.0283) rotate(-40.3618)" fill="black" style="fill:black;fill-opacity:1;"/>
<rect width="7.86047" height="3.95405" transform="translate(15.5137 52.8525) rotate(-40.3618)" fill="black" style="fill:black;fill-opacity:1;"/>
<rect width="12.619" height="3.95405" transform="translate(6.52441 49.5845) rotate(-40.3618)" fill="black" style="fill:black;fill-opacity:1;"/>
<path fill-rule="evenodd" clip-rule="evenodd" d="M19.8342 36.1382L21.339 34.8744L15.8948 28.3922L36.3253 11.2332L52.2244 8.53984L56.9394 14.1539L51.5885 29.4065L31.3524 46.797L26.0055 40.4305L23.1116 42.861L30.9377 52.1791L34.9312 48.8251L39.926 59.238L51.3856 49.6134L50.3842 35.8465L55.4195 31.6175L60.9906 13.219L53.8451 4.71109L33.7004 8.10786L29.8227 11.3647L16.7274 8.34732L5.26778 17.9719L14.1381 24.5377L10.3761 27.6973L18.4452 37.3048L19.8342 36.1382ZM17.2085 12.6809L25.8292 14.7187L17.3213 21.8642L11.363 17.5904L17.2085 12.6809ZM46.9572 48.1015L46.3908 39.2005L37.8829 46.3461L41.1117 53.011L46.9572 48.1015Z" fill="black" style="fill:black;fill-opacity:1;"/>
<path d="M42.1007 15.7593L34.6346 22.0299L40.6621 29.2066L48.1282 22.936L42.1007 15.7593Z" fill="black" style="fill:black;fill-opacity:1;"/>
<path fill-rule="evenodd" clip-rule="evenodd" d="M19.8342 36.1382L21.339 34.8744L15.8948 28.3922L36.3253 11.2332L52.2244 8.53984L56.9394 14.1539L51.5885 29.4065L31.3524 46.797L26.0055 40.4305L23.1116 42.861L30.9377 52.1791L34.9312 48.8251L39.926 59.238L51.3856 49.6134L50.3842 35.8465L55.4195 31.6175L60.9906 13.219L53.8451 4.71109L33.7004 8.10786L29.8227 11.3647L16.7274 8.34732L5.26778 17.9719L14.1381 24.5377L10.3761 27.6973L18.4452 37.3048L19.8342 36.1382ZM17.2085 12.6809L25.8292 14.7187L17.3213 21.8642L11.363 17.5904L17.2085 12.6809ZM46.9572 48.1015L46.3908 39.2005L37.8829 46.3461L41.1117 53.011L46.9572 48.1015Z" stroke="black" style="stroke:black;stroke-opacity:1;" stroke-width="0.25"/>
<path d="M42.1007 15.7593L34.6346 22.0299L40.6621 29.2066L48.1282 22.936L42.1007 15.7593Z" stroke="black" style="stroke:black;stroke-opacity:1;" stroke-width="0.25"/>
</g>
<defs>
<clipPath id="clip0_341_5061">
<rect width="65" height="65" fill="white" style="fill:white;fill-opacity:1;"/>
</clipPath>
</defs>
</svg>
