<svg width="89" height="75" viewBox="0 0 89 75" fill="none" xmlns="http://www.w3.org/2000/svg">
<g clip-path="url(#clip0_344_991)">
<path d="M60.9347 0.414742C60.6722 0.151259 60.3076 0 59.9455 0H30.1534C29.7815 0 29.4242 0.151259 29.1642 0.414742L8.10458 21.5544C7.84209 21.8179 7.69141 22.1838 7.69141 22.5473V52.4527C7.69141 52.8186 7.84209 53.1846 8.10458 53.4456L29.1666 74.5877C29.4291 74.8512 29.7839 75.0024 30.1558 75.0024H59.9479C60.3125 75.0024 60.677 74.8512 60.9371 74.5877L81.9991 53.4456C82.2616 53.1821 82.4123 52.8162 82.4123 52.4527V22.5473C82.4123 22.1814 82.2616 21.8154 81.9991 21.5544L60.9347 0.414742ZM79.6027 51.8696L59.3622 72.1871H30.7269L10.4864 51.8696V23.1255L30.7269 2.80805H59.3622L79.6027 23.1255V51.8696Z" fill="black" stroke="black" style="fill:black;fill-opacity:1;stroke:black;stroke-opacity:1;" stroke-width="1.5"/>
<path d="M56.2539 22.5107V22.4375C56.2539 19.8588 54.1638 17.7509 51.5851 17.7509C50.9021 17.7509 50.2581 17.912 49.6699 18.173C49.4366 15.8114 47.4655 13.9426 45.0472 13.9426C42.629 13.9426 40.6579 15.8065 40.4246 18.173C39.8364 17.9095 39.1924 17.7509 38.5094 17.7509C35.9307 17.7509 33.8406 19.8612 33.8406 22.4375V28.2244C33.2719 27.9707 32.6375 27.8292 31.9716 27.8292C29.3929 27.8292 27.3027 29.9273 27.3027 32.5158V43.2503C27.3027 53.065 35.2599 61.0622 45.0472 61.0622C54.8346 61.0622 62.7918 53.065 62.7918 43.2503V26.8069C62.7918 24.2185 60.7016 22.1204 58.1229 22.1204C57.4594 22.1204 56.8251 22.2594 56.2539 22.5156V22.5107ZM59.9895 26.8045V43.2478C59.9895 51.5158 53.2839 58.2468 45.0472 58.2468C36.8105 58.2468 30.105 51.5158 30.105 43.2478V32.5133C30.105 31.474 30.9435 30.6372 31.974 30.6372C33.0045 30.6372 33.843 31.4716 33.843 32.5133V41.3473C33.843 42.3037 34.2149 43.2039 34.8905 43.8772L37.1702 46.173C37.722 46.7146 38.6066 46.7146 39.151 46.173C39.7028 45.6192 39.7028 44.7311 39.151 44.1773L36.8713 41.8889C36.7328 41.7499 36.6477 41.5522 36.6477 41.3473V22.4351C36.6477 21.4031 37.4862 20.559 38.5167 20.559C39.5472 20.559 40.3857 21.4007 40.3857 22.4351V37.8074C40.3857 38.5832 41.0127 39.2126 41.7856 39.2126C42.5585 39.2126 43.1855 38.5832 43.1855 37.8074V18.6243C43.1855 17.5924 44.024 16.7482 45.0545 16.7482C46.085 16.7482 46.9235 17.5899 46.9235 18.6243V37.8074C46.9235 38.5832 47.5506 39.2126 48.3235 39.2126C49.0963 39.2126 49.7234 38.5832 49.7234 37.8074V22.4351C49.7234 21.4031 50.5619 20.559 51.5924 20.559C52.6229 20.559 53.4614 21.4007 53.4614 22.4351V37.8074C53.4614 38.5832 54.0884 39.2126 54.8613 39.2126C55.6342 39.2126 56.2612 38.5832 56.2612 37.8074V26.8021C56.2612 25.7628 57.0997 24.926 58.1302 24.926C59.1607 24.926 59.9992 25.7603 59.9992 26.8021H59.9943L59.9895 26.8045Z" fill="black" stroke="black" style="fill:black;fill-opacity:1;stroke:black;stroke-opacity:1;" stroke-width="1.5"/>
</g>
<defs>
<clipPath id="clip0_344_991">
<rect width="89" height="75" fill="white" style="fill:white;fill-opacity:1;"/>
</clipPath>
</defs>
</svg>
